<svg width="390" height="270" viewBox="0 0 390 270" fill="none" xmlns="http://www.w3.org/2000/svg">
<g clip-path="url(#clip0_8:698)">
<path d="M315.643 129.039L325.248 150.683L322.937 177.451C322.211 178.067 321.697 178.895 321.468 179.819C321.24 180.742 321.307 181.714 321.662 182.598C322.016 183.481 322.64 184.23 323.444 184.738C324.248 185.247 325.191 185.49 326.141 185.432C327.09 185.374 327.997 185.019 328.734 184.416C329.47 183.813 329.998 182.994 330.243 182.075C330.487 181.155 330.436 180.182 330.097 179.293C329.758 178.404 329.148 177.644 328.353 177.121L328.729 177.055L332.492 150.306L326.285 123.324L315.643 129.039Z" fill="#FFB8B8"/>
<path d="M288.213 269.843C297.681 269.843 305.356 269.044 305.356 268.057C305.356 267.07 297.681 266.271 288.213 266.271C278.745 266.271 271.069 267.07 271.069 268.057C271.069 269.044 278.745 269.843 288.213 269.843Z" fill="#E6E6E6"/>
<path d="M338.928 269.843C348.396 269.843 356.071 269.044 356.071 268.057C356.071 267.07 348.396 266.271 338.928 266.271C329.46 266.271 321.784 267.07 321.784 268.057C321.784 269.044 329.46 269.843 338.928 269.843Z" fill="#E6E6E6"/>
<path d="M378.214 269.843C384.723 269.843 390 269.293 390 268.615C390 267.937 384.723 267.387 378.214 267.387C371.705 267.387 366.428 267.937 366.428 268.615C366.428 269.293 371.705 269.843 378.214 269.843Z" fill="#E6E6E6"/>
<path d="M381.585 259.306C381.504 262.367 380.992 265.402 380.064 268.32C380.043 268.388 380.021 268.455 379.999 268.522H374.316C374.322 268.462 374.328 268.394 374.334 268.32C374.713 263.961 376.898 237.44 374.286 232.905C374.515 233.272 382.028 245.459 381.585 259.306Z" fill="#E6E6E6"/>
<path d="M381.161 268.32C381.113 268.388 381.064 268.455 381.013 268.522H376.75C376.782 268.465 376.82 268.399 376.863 268.32C377.567 267.049 379.652 263.247 381.587 259.306C383.667 255.07 385.575 250.674 385.414 249.083C385.464 249.442 386.902 260.381 381.161 268.32Z" fill="#E6E6E6"/>
<path d="M262.051 171.034H3.11675C2.29044 171.033 1.49825 170.704 0.913956 170.12C0.329665 169.535 0.000979108 168.743 0 167.916V3.11794C0.000870525 2.29128 0.329523 1.49872 0.913837 0.914184C1.49815 0.329647 2.2904 0.00086895 3.11675 -1.90735e-06H262.051C262.877 0.00086895 263.669 0.329647 264.254 0.914184C264.838 1.49872 265.167 2.29128 265.167 3.11794V167.916C265.166 168.743 264.838 169.535 264.254 170.12C263.669 170.704 262.877 171.033 262.051 171.034ZM3.11675 1.23368C2.61737 1.23423 2.1386 1.43292 1.78549 1.78617C1.43238 2.13942 1.23376 2.61837 1.23322 3.11794V167.916C1.23376 168.416 1.43238 168.895 1.78549 169.248C2.1386 169.601 2.61737 169.8 3.11675 169.8H262.051C262.55 169.8 263.029 169.601 263.382 169.248C263.735 168.895 263.934 168.416 263.934 167.916V3.11794C263.934 2.61837 263.735 2.13942 263.382 1.78617C263.029 1.43292 262.55 1.23423 262.051 1.23368H3.11675Z" fill="#E6E6E6"/>
<path d="M194.981 24.2958H57.7895C57.1158 24.2966 56.4699 24.5647 55.9934 25.0412C55.517 25.5178 55.2491 26.164 55.2483 26.838V144.196C55.2491 144.87 55.517 145.516 55.9934 145.992C56.4699 146.469 57.1158 146.737 57.7895 146.738H194.981C195.655 146.737 196.301 146.469 196.777 145.992C197.254 145.516 197.522 144.87 197.523 144.196V26.838C197.522 26.164 197.254 25.5178 196.777 25.0412C196.301 24.5647 195.655 24.2966 194.981 24.2958ZM196.502 144.196C196.502 144.6 196.342 144.988 196.057 145.274C195.772 145.56 195.385 145.722 194.981 145.724H57.7895C57.3854 145.723 56.9982 145.561 56.713 145.275C56.4279 144.988 56.268 144.6 56.2686 144.196V26.838C56.268 26.4337 56.4279 26.0457 56.713 25.7592C56.9982 25.4727 57.3854 25.3111 57.7895 25.3099H194.981C195.385 25.3119 195.772 25.4737 196.057 25.76C196.342 26.0464 196.502 26.4339 196.502 26.838V144.196Z" fill="#3F3D56"/>
<path d="M89.4569 125.871C89.4569 126.052 89.452 126.233 89.4425 126.409C89.3038 129.057 88.1545 131.551 86.2316 133.377C84.3087 135.202 81.7589 136.22 79.108 136.22C76.4571 136.22 73.9073 135.202 71.9844 133.377C70.0615 131.551 68.9122 129.057 68.7734 126.409C68.764 126.233 68.759 126.052 68.759 125.871C68.759 123.125 69.8493 120.492 71.7901 118.55C73.7309 116.609 76.3631 115.518 79.1078 115.518C81.8524 115.518 84.4847 116.609 86.4254 118.55C88.3662 120.492 89.4565 123.125 89.4565 125.871H89.4569Z" fill="#F2A20C"/>
<path d="M184.321 118.968H103.006C102.56 118.985 102.138 119.174 101.828 119.496C101.518 119.817 101.345 120.247 101.345 120.694C101.345 121.14 101.518 121.57 101.828 121.892C102.138 122.213 102.56 122.403 103.006 122.419H184.321C184.778 122.436 185.223 122.27 185.558 121.959C185.893 121.648 186.091 121.216 186.108 120.759C186.125 120.301 185.96 119.856 185.65 119.52C185.339 119.185 184.908 118.986 184.451 118.968C184.408 118.966 184.364 118.966 184.321 118.968Z" fill="#F2A20C"/>
<path d="M137.995 129.322H103.006C102.549 129.322 102.111 129.504 101.788 129.827C101.465 130.15 101.283 130.589 101.283 131.046C101.283 131.503 101.465 131.941 101.788 132.265C102.111 132.588 102.549 132.769 103.006 132.769H137.995C138.452 132.77 138.891 132.589 139.214 132.267C139.538 131.944 139.72 131.506 139.721 131.049C139.722 130.592 139.541 130.153 139.219 129.829C138.896 129.505 138.458 129.323 138.001 129.322H137.995Z" fill="#E6E6E6"/>
<path d="M227.575 106.164H90.3823C89.614 106.163 88.8775 105.857 88.3343 105.314C87.7911 104.771 87.4855 104.034 87.4846 103.265V43.0343C87.4855 42.2657 87.7911 41.5289 88.3343 40.9855C88.8775 40.4421 89.614 40.1364 90.3823 40.1355H227.573C228.342 40.1364 229.078 40.4421 229.621 40.9855C230.164 41.5289 230.47 42.2657 230.471 43.0343V103.264C230.47 104.032 230.165 104.769 229.622 105.313C229.08 105.857 228.343 106.163 227.575 106.164Z" fill="#F2A20C"/>
<path d="M118.323 61.4861C117.866 61.4661 117.419 61.6287 117.082 61.9382C116.744 62.2477 116.543 62.6786 116.523 63.1362C116.503 63.5939 116.666 64.0407 116.975 64.3784C117.284 64.7162 117.715 64.9171 118.173 64.9371C118.223 64.9393 118.273 64.9393 118.323 64.9371H199.636C200.081 64.9177 200.5 64.7274 200.808 64.406C201.116 64.0845 201.287 63.6566 201.287 63.2116C201.287 62.7666 201.116 62.3387 200.808 62.0173C200.5 61.6958 200.081 61.5055 199.636 61.4861H118.323Z" fill="white"/>
<path d="M118.323 71.4843C117.866 71.4643 117.419 71.6269 117.082 71.9364C116.744 72.2459 116.543 72.6768 116.523 73.1344C116.503 73.5921 116.666 74.0389 116.975 74.3766C117.284 74.7144 117.715 74.9153 118.173 74.9353C118.223 74.9375 118.273 74.9375 118.323 74.9353H199.636C200.081 74.9159 200.5 74.7256 200.808 74.4042C201.116 74.0827 201.287 73.6548 201.287 73.2098C201.287 72.7648 201.116 72.3369 200.808 72.0155C200.5 71.694 200.081 71.5037 199.636 71.4843H118.323Z" fill="white"/>
<path d="M118.323 81.3608C117.879 81.3802 117.459 81.5705 117.151 81.8919C116.844 82.2134 116.672 82.6413 116.672 83.0863C116.672 83.5313 116.844 83.9592 117.151 84.2806C117.459 84.6021 117.879 84.7924 118.323 84.8118H153.312C153.539 84.8217 153.765 84.7869 153.978 84.7093C154.191 84.6317 154.387 84.5129 154.554 84.3597C154.721 84.2065 154.857 84.0218 154.953 83.8163C155.048 83.6107 155.103 83.3883 155.113 83.1617C155.123 82.9351 155.088 82.7087 155.01 82.4956C154.933 82.2825 154.814 82.0867 154.661 81.9195C154.508 81.7522 154.323 81.6168 154.117 81.521C153.912 81.4251 153.69 81.3707 153.463 81.3608C153.413 81.3586 153.363 81.3586 153.312 81.3608H118.323Z" fill="white"/>
<path d="M11.0633 10.9181C12.2468 10.9181 13.2062 9.95834 13.2062 8.77438C13.2062 7.59043 12.2468 6.63065 11.0633 6.63065C9.87983 6.63065 8.92041 7.59043 8.92041 8.77438C8.92041 9.95834 9.87983 10.9181 11.0633 10.9181Z" fill="#F2A20C"/>
<path d="M18.5631 10.9181C19.7466 10.9181 20.706 9.95834 20.706 8.77438C20.706 7.59043 19.7466 6.63065 18.5631 6.63065C17.3796 6.63065 16.4202 7.59043 16.4202 8.77438C16.4202 9.95834 17.3796 10.9181 18.5631 10.9181Z" fill="#F2A20C"/>
<path d="M26.0633 10.9181C27.2468 10.9181 28.2062 9.95834 28.2062 8.77438C28.2062 7.59043 27.2468 6.63065 26.0633 6.63065C24.8798 6.63065 23.9204 7.59043 23.9204 8.77438C23.9204 9.95834 24.8798 10.9181 26.0633 10.9181Z" fill="#F2A20C"/>
<path d="M312.363 102.141C317.635 102.141 321.909 97.8661 321.909 92.5923C321.909 87.3184 317.635 83.0431 312.363 83.0431C307.092 83.0431 302.818 87.3184 302.818 92.5923C302.818 97.8661 307.092 102.141 312.363 102.141Z" fill="#FFB8B8"/>
<path d="M293.483 143.518L318.553 148.183C327.005 132.693 331.667 118.706 323.801 109.689L308.934 108.814C299.434 118.976 291.4 128.838 296.859 135.936L293.483 143.518Z" fill="#F2A20C"/>
<path d="M315.808 131.355C321.545 133.551 326.87 131.643 331.758 125.383L324.514 111.401L315.283 113.231L315.808 131.355Z" fill="#F9A826"/>
<path d="M291.15 259.584L301.061 259.074L307.474 191.927L340.123 258.711L350.326 258.419L330.797 199.801C330.026 180.244 329.22 160.739 320.885 152.266L317.97 146.142L294.65 141.184L291.443 147.308C284.008 164.676 288.373 214.299 291.15 259.584Z" fill="#2F2E41"/>
<path d="M303.102 125.146L294.94 147.311L280.139 168.381C279.19 168.443 278.284 168.802 277.55 169.408C276.817 170.014 276.292 170.835 276.051 171.756C275.81 172.676 275.865 173.649 276.208 174.537C276.551 175.425 277.164 176.182 277.962 176.701C278.759 177.22 279.699 177.475 280.649 177.43C281.599 177.384 282.511 177.041 283.255 176.448C283.999 175.855 284.538 175.043 284.795 174.127C285.052 173.21 285.014 172.236 284.686 171.343L285.028 171.514L303.976 152.269L315.054 126.896L303.102 125.146Z" fill="#FFB8B8"/>
<path d="M301.062 125.146C305.146 129.736 310.751 130.492 317.97 127.187V111.439L308.933 108.815L301.062 125.146Z" fill="#F2A20C"/>
<path d="M342.3 119.183C340.849 117.367 338.823 116.118 336.859 114.876C334.895 113.633 332.9 112.312 331.565 110.408C329.435 107.37 329.334 103.374 329.652 99.6773C329.969 95.9804 330.62 92.2041 329.719 88.6042C328.528 83.8421 324.584 79.9864 319.924 78.4489C315.264 76.9113 310.023 77.5676 305.639 79.7734L306.844 78.6356C305.884 78.8335 305.008 79.3211 304.333 80.0325C303.658 80.744 303.218 81.6452 303.071 82.6147C302.924 83.5842 303.078 84.5754 303.512 85.4549C303.945 86.3343 304.638 87.0597 305.496 87.5333C307.474 88.6243 310.168 88.3118 311.757 89.9156C313.321 91.4967 312.993 94.092 312.428 96.2436C310.967 101.813 308.649 107.175 307.846 112.875C307.044 118.576 308.059 124.963 312.286 128.87C315.394 131.741 319.81 132.849 324.039 132.764C328.269 132.68 332.396 131.522 336.466 130.371C339.32 129.564 342.541 128.444 343.659 125.694C344.535 123.542 343.752 121 342.3 119.183Z" fill="#2F2E41"/>
<path d="M301.311 267.27L280.03 267.269V267C280.03 264.802 280.903 262.695 282.457 261.141C284.01 259.587 286.117 258.714 288.313 258.714H288.314L301.311 258.714L301.311 267.27Z" fill="#2F2E41"/>
<path d="M350.64 266.447L329.359 266.446V266.177C329.359 263.98 330.232 261.872 331.785 260.318C333.338 258.764 335.445 257.891 337.642 257.891H337.642L350.64 257.892L350.64 266.447Z" fill="#2F2E41"/>
</g>
<defs>
<clipPath id="clip0_8:698">
<rect width="390" height="269.843" fill="white"/>
</clipPath>
</defs>
</svg>
