<?xml version="1.0" encoding="UTF-8"?>
<svg xmlns="http://www.w3.org/2000/svg" xmlns:xlink="http://www.w3.org/1999/xlink" width="757.88pt" height="431.74pt" viewBox="0 0 757.88 431.74" version="1.1">
<defs>
<clipPath id="clip1">
  <path d="M 683 169 L 757.878906 169 L 757.878906 290 L 683 290 Z M 683 169 "/>
</clipPath>
<clipPath id="clip2">
  <path d="M 0 0 L 406 0 L 406 431.738281 L 0 431.738281 Z M 0 0 "/>
</clipPath>
</defs>
<g id="surface1">
<path style=" stroke:none;fill-rule:evenodd;fill:rgb(20.399475%,39.599609%,19.198608%);fill-opacity:1;" d="M 460.492188 114.785156 C 462.742188 114.6875 465 115.140625 465.949219 119.964844 C 467.035156 125.496094 466.25 134.171875 466.25 140.363281 C 466.25 176.816406 465.714844 216.984375 466.855469 253.625 C 467.066406 260.417969 465.835938 268.378906 467.160156 274.023438 C 467.84375 276.945313 471.675781 280.339844 471.402344 283.160156 C 470.703125 290.488281 460.121094 288.640625 452.910156 288.640625 C 445.558594 288.640625 434.945313 290.203125 434.117188 283.769531 C 433.652344 280.1875 437.914063 277.25 438.664063 274.328125 C 439.757813 270.050781 438.96875 263.65625 438.96875 257.886719 C 438.96875 225.3125 438.664063 191.351563 438.664063 157.714844 C 438.664063 152.207031 439.257813 146.308594 438.359375 142.1875 C 437.753906 139.402344 433.300781 137.464844 433.207031 133.96875 C 432.992188 125.777344 445.566406 121.511719 451.394531 118.441406 C 454.175781 116.976563 456.664063 114.957031 460.492188 114.785156 "/>
<path style=" stroke:none;fill-rule:evenodd;fill:rgb(20.399475%,39.599609%,19.198608%);fill-opacity:1;" d="M 321.039063 134.578125 C 316.207031 136.308594 314.8125 141.835938 313.460938 146.757813 C 309.296875 161.921875 309.054688 182.019531 308.609375 200.648438 C 308.316406 212.953125 309.054688 226.683594 309.824219 238.703125 C 310.496094 249.21875 311.535156 265.664063 321.34375 266.109375 C 331.414063 266.5625 333 253.25 333.46875 242.96875 C 333.984375 231.640625 331.171875 217.972656 340.136719 215.261719 C 355.277344 214.460938 356.28125 235.039063 355.601563 250.582031 C 354.960938 265.167969 350.484375 277.0625 341.65625 284.070313 C 332.144531 291.621094 316.898438 294.097656 304.367188 289.855469 C 270.511719 278.402344 268.488281 223.585938 275.265625 180.855469 C 277.457031 167.015625 281.847656 153.023438 286.480469 143.101563 C 293.476563 128.121094 309.433594 106.964844 331.648438 117.828125 C 335.074219 116.5625 337.21875 113.777344 342.261719 114.785156 C 350.164063 116.367188 349.875 131.449219 351.355469 141.273438 C 352.640625 149.820313 358.621094 174.996094 343.777344 173.550781 C 336.757813 172.863281 333.742188 161.183594 331.648438 154.671875 C 329.175781 146.964844 327.316406 138.980469 321.039063 134.578125 "/>
<path style=" stroke:none;fill-rule:evenodd;fill:rgb(20.399475%,39.599609%,19.198608%);fill-opacity:1;" d="M 655.417969 116.308594 C 669.679688 114.332031 674.160156 128.242188 668.152344 138.535156 C 664.585938 144.640625 657.207031 149.980469 651.175781 150.714844 C 644.367188 151.546875 638.734375 147.890625 637.230469 143.101563 C 633.367188 130.808594 645.132813 117.734375 655.417969 116.308594 "/>
<path style=" stroke:none;fill-rule:evenodd;fill:rgb(20.399475%,39.599609%,19.198608%);fill-opacity:1;" d="M 100.949219 267.632813 C 117.453125 269.699219 121.707031 256.320313 128.234375 244.796875 C 130.691406 240.460938 133.878906 233.597656 140.058594 233.527344 C 149.984375 233.425781 147.855469 245.378906 146.121094 253.625 C 144.296875 262.300781 142.363281 273.035156 139.753906 282.550781 C 138.269531 287.964844 135.976563 291.882813 132.175781 292.597656 C 129.65625 293.070313 126.832031 291.75 123.988281 291.074219 C 110.386719 287.832031 92.601563 289.554688 75.484375 289.554688 C 68.511719 289.554688 61.644531 289.898438 60.933594 284.070313 C 60.359375 279.351563 65.539063 277.617188 66.390625 273.414063 C 67.316406 268.855469 66.390625 262.246094 66.390625 256.0625 C 66.390625 221.832031 66.089844 186.09375 66.089844 152.234375 C 66.089844 146.222656 66.921875 139.839844 66.089844 135.1875 C 65.351563 131.085938 60.242188 129.039063 60.632813 124.527344 C 61.003906 120.179688 65.023438 119.007813 69.722656 118.441406 C 74.550781 117.855469 83.488281 118.441406 90.644531 118.441406 C 99.167969 118.441406 105.289063 118.769531 106.105469 123.617188 C 107.167969 129.972656 100.496094 130.257813 99.433594 134.578125 C 98.398438 138.796875 99.433594 146.035156 99.433594 151.628906 C 99.433594 179.527344 99.433594 207.980469 99.433594 235.660156 C 99.433594 246.695313 99.152344 257.664063 100.949219 267.632813 "/>
<path style=" stroke:none;fill-rule:evenodd;fill:rgb(20.399475%,39.599609%,19.198608%);fill-opacity:1;" d="M 582.660156 177.8125 C 585.261719 176.144531 586.449219 173.472656 589.332031 172.027344 C 598.078125 167.644531 606.457031 173.898438 609.945313 179.03125 C 621.816406 196.488281 622.484375 233.605469 624.496094 260.933594 C 624.8125 265.226563 624.710938 270.09375 625.710938 273.414063 C 626.855469 277.230469 634.621094 282.917969 628.136719 287.117188 C 625.945313 288.535156 620.972656 287.867188 616.917969 288.03125 C 609.09375 288.34375 592.734375 290.898438 592.664063 282.550781 C 592.636719 278.902344 596.855469 276.585938 597.515625 273.414063 C 598.683594 267.800781 597.289063 258.023438 596.910156 251.796875 C 596.054688 237.757813 595.03125 223.96875 592.363281 211.304688 C 591.078125 205.21875 589.878906 198.988281 585.996094 195.164063 C 584.183594 200.792969 584.78125 207.433594 584.785156 214.042969 C 584.785156 227.167969 584.589844 240.605469 585.085938 253.929688 C 585.351563 260.988281 584.109375 268.28125 585.390625 273.722656 C 586.28125 277.515625 593.765625 283.816406 587.210938 287.421875 C 583.800781 289.292969 575.542969 288.335938 569.019531 288.335938 C 560.617188 288.335938 552.019531 289.390625 552.042969 282.550781 C 552.054688 279.988281 556.09375 277.097656 556.894531 274.023438 C 558.140625 269.242188 557.195313 261.707031 557.195313 254.84375 C 557.195313 242.027344 557.195313 229.179688 557.195313 215.867188 C 557.195313 209.738281 557.867188 201.351563 556.285156 197.90625 C 554.953125 195 551.5625 194.09375 551.4375 190.601563 C 551.253906 185.554688 557.175781 182.46875 562.046875 179.335938 C 567.457031 175.855469 571.457031 172.480469 575.992188 171.113281 C 580.378906 169.789063 582.398438 173.558594 582.660156 177.8125 "/>
<path style=" stroke:none;fill-rule:evenodd;fill:rgb(20.399475%,39.599609%,19.198608%);fill-opacity:1;" d="M 662.085938 171.417969 C 670.65625 170.542969 668.757813 186.222656 668.757813 195.472656 C 668.757813 214.800781 668.757813 230.113281 668.757813 247.839844 C 668.757813 257.800781 667.382813 266.652344 669.0625 273.414063 C 669.84375 276.566406 674.1875 279.515625 673.910156 282.855469 C 673.34375 289.6875 662.058594 288.03125 654.8125 288.03125 C 646.960938 288.03125 636.511719 289.742188 636.015625 282.855469 C 635.78125 279.554688 639.921875 277.261719 640.867188 273.722656 C 642.144531 268.929688 641.171875 261.628906 641.171875 254.84375 C 641.171875 242.695313 641.171875 229.25 641.171875 216.480469 C 641.171875 210.324219 641.863281 203.140625 640.5625 198.820313 C 639.632813 195.730469 635.601563 194.09375 635.410156 190.902344 C 635.078125 185.394531 640.886719 182.382813 645.71875 179.640625 C 651.199219 176.523438 654.972656 173.65625 659.359375 172.027344 C 660.351563 171.660156 661.085938 171.519531 662.085938 171.417969 "/>
<path style=" stroke:none;fill-rule:nonzero;fill:rgb(20.399475%,39.599609%,19.198608%);fill-opacity:1;" d="M 522.03125 262.148438 C 518.039063 262.90625 513.621094 255.195313 511.722656 251.492188 C 506.972656 242.242188 503.386719 230.480469 501.113281 220.132813 C 500.328125 216.558594 496.472656 200.421875 500.8125 198.515625 C 505.261719 196.5625 509.511719 207.546875 511.117188 211 C 516.199219 221.9375 519.839844 231.238281 522.941406 244.1875 C 524.1875 249.390625 526.589844 261.289063 522.03125 262.148438 Z M 528.699219 179.945313 C 523.976563 174.480469 517.191406 169.632813 507.78125 171.113281 C 496.480469 172.894531 489.828125 185.285156 485.957031 195.472656 C 482.59375 204.3125 480.597656 213.804688 479.894531 228.65625 C 478.773438 252.28125 484.980469 277.28125 499.898438 286.8125 C 505.964844 290.6875 516.261719 291.84375 522.03125 289.25 C 537.011719 282.503906 542.789063 260.296875 543.855469 237.792969 C 544.960938 214.554688 538.914063 191.753906 528.699219 179.945313 "/>
<path style=" stroke:none;fill-rule:nonzero;fill:rgb(20.399475%,39.599609%,19.198608%);fill-opacity:1;" d="M 394.101563 251.796875 C 389.59375 242.902344 385.359375 231.042969 383.1875 220.742188 C 382.0625 215.417969 379.566406 201.925781 383.1875 198.515625 C 388.101563 198.480469 391.53125 207.046875 393.492188 211.304688 C 398.292969 221.714844 402.425781 232.085938 405.316406 244.492188 C 406.394531 249.113281 409.113281 261.5 404.40625 262.453125 C 400.277344 263.292969 395.917969 255.382813 394.101563 251.796875 Z M 418.957031 193.339844 C 414.667969 183.929688 405.683594 168.617188 389.855469 171.417969 C 386.265625 172.054688 385.328125 172.617188 383.792969 173.550781 C 377.179688 177.570313 371.722656 186.511719 368.332031 195.164063 C 357.777344 222.105469 360.292969 266.363281 377.730469 283.464844 C 384.351563 289.953125 397.800781 293.976563 407.136719 288.03125 C 429.265625 273.9375 430.960938 219.652344 418.957031 193.339844 "/>
<g clip-path="url(#clip1)" clip-rule="nonzero">
<path style=" stroke:none;fill-rule:nonzero;fill:rgb(20.399475%,39.599609%,19.198608%);fill-opacity:1;" d="M 721.203125 259.714844 C 720.898438 263.355469 719.707031 267.242188 716.351563 267.324219 C 710.332031 267.472656 709.46875 255.015625 709.984375 247.230469 C 710.625 237.664063 715.375 228.390625 719.6875 225.003906 C 719.945313 224.949219 719.972656 225.121094 719.992188 225.308594 C 719.695313 235.28125 722.148438 248.324219 721.203125 259.714844 Z M 756.976563 266.109375 C 755.46875 265.378906 751.867188 267.492188 750.308594 265.804688 C 747.980469 252.445313 748.351563 239.707031 747.578125 226.527344 C 746.875 214.558594 747.171875 199.921875 743.636719 188.773438 C 740.246094 178.09375 732.554688 171.722656 720.292969 170.199219 C 708.355469 168.71875 696.351563 171.789063 689.980469 180.855469 C 682.644531 191.292969 685.296875 216.949219 704.527344 210.695313 C 710.964844 208.601563 716.714844 197.960938 710.894531 190.296875 C 710.261719 189.460938 708.300781 188.835938 709.078125 187.554688 C 714.695313 186.214844 716.496094 191.21875 717.566406 195.164063 C 718.730469 199.476563 719.019531 204.605469 719.078125 209.476563 C 704.15625 216.953125 688.957031 227.195313 684.824219 247.535156 C 680.460938 269.027344 690.261719 293.183594 712.410156 289.554688 C 719.058594 288.460938 723.425781 284.011719 726.660156 278.59375 C 728.851563 282.042969 730.121094 285.796875 734.238281 288.03125 C 739.449219 290.859375 748.273438 290.316406 752.730469 286.507813 C 755.863281 283.835938 756.523438 280.109375 757.886719 275.851563 C 757.886719 273.617188 757.886719 271.386719 757.886719 269.152344 C 757.1875 268.53125 757.070313 267.332031 756.976563 266.109375 "/>
</g>
<path style=" stroke:none;fill-rule:nonzero;fill:rgb(20.399475%,39.599609%,19.198608%);fill-opacity:1;" d="M 190.988281 260.019531 C 190.699219 264.074219 189.820313 268.648438 186.136719 268.851563 C 179.457031 269.210938 179.363281 256.117188 179.769531 248.753906 C 180.296875 239.179688 184.375 231.621094 188.5625 227.136719 C 188.785156 226.851563 189.113281 226.675781 189.472656 226.527344 C 189.730469 226.472656 189.757813 226.648438 189.773438 226.832031 C 189.253906 237.304688 191.746094 249.367188 190.988281 260.019531 Z M 226.457031 267.632813 C 224.496094 267.847656 222.140625 268.765625 220.089844 267.933594 C 218.136719 259.246094 218.296875 249.050781 217.664063 239.011719 C 215.773438 209.011719 219.699219 174.308594 189.773438 172.027344 C 174.90625 170.894531 164.242188 175.28125 158.851563 183.597656 C 151.722656 194.589844 155.632813 213.535156 169.765625 213.4375 C 178.890625 213.367188 184.144531 205.972656 182.800781 197.296875 C 182.25 193.730469 179.714844 191.644531 178.558594 189.683594 C 189.164063 188.429688 187.742188 202.71875 188.863281 211.304688 C 171.898438 219.542969 151.164063 234.277344 153.394531 263.367188 C 154.464844 277.28125 162.023438 290.371094 175.527344 291.683594 C 187.277344 292.824219 191.96875 286.589844 196.746094 280.722656 C 198.390625 292.121094 217.632813 295.597656 224.335938 286.507813 C 227.625 282.042969 228.152344 274.582031 226.457031 267.632813 "/>
<g clip-path="url(#clip2)" clip-rule="nonzero">
<path style=" stroke:none;fill-rule:evenodd;fill:rgb(20.399475%,39.599609%,19.198608%);fill-opacity:1;" d="M 246.464844 0.00390625 C 247.777344 0.00390625 249.09375 0.00390625 250.40625 0.00390625 C 250.40625 0.101563 250.40625 0.203125 250.40625 0.304688 C 256.96875 2.558594 253.359375 16.011719 252.828125 23.140625 C 251.378906 42.675781 249.265625 64.511719 247.980469 82.816406 C 250.984375 76.332031 253.582031 70.511719 257.074219 65.160156 C 267.351563 49.398438 282.703125 37.757813 309.21875 37.757813 C 317.539063 37.757813 325.171875 39.019531 332.863281 40.800781 C 340.210938 42.503906 346.808594 44.796875 354.082031 45.367188 C 374.269531 46.960938 390.902344 40.054688 395.617188 22.835938 C 398.605469 24.097656 402.296875 24.652344 405.316406 25.882813 C 394.445313 54.828125 375.074219 77.886719 348.324219 91.949219 C 335.519531 98.683594 317.769531 103.535156 299.820313 105.042969 C 280.414063 106.675781 261.472656 103.359375 245.25 99.566406 C 245.28125 97.160156 245.878906 95.320313 245.859375 92.867188 C 243.394531 94.152344 239.664063 93.945313 237.976563 91.648438 C 235.359375 88.089844 237.890625 77.730469 238.28125 72.160156 C 239.753906 51 241.753906 31.058594 243.128906 11.570313 C 236.296875 11.902344 231.789063 12.734375 225.242188 13.398438 C 231.390625 25.8125 238.578125 37.003906 237.976563 56.328125 C 237.714844 64.6875 235.957031 72.054688 233.125 79.164063 C 231.09375 84.261719 227.085938 94.964844 221.90625 95.605469 C 218.945313 95.972656 212.453125 93.152344 209.175781 92.257813 C 196.359375 88.746094 184.015625 86.273438 170.371094 84.339844 C 152.398438 81.792969 131.589844 80.828125 111.5625 83.121094 C 74.296875 87.390625 46.859375 102.257813 30.316406 127.878906 C 13.21875 154.355469 8.578125 191.933594 11.519531 231.703125 C 14.375 270.292969 22.796875 305.109375 34.863281 334.613281 C 46.832031 363.890625 63.734375 390.976563 89.128906 407.074219 C 102.609375 415.628906 118.449219 421.390625 138.539063 421.082031 C 157.472656 420.792969 174.578125 415.367188 187.652344 407.074219 C 200.234375 399.101563 213.121094 388.789063 234.339844 393.375 C 251.945313 397.183594 262.03125 405.578125 277.6875 413.167969 C 285.328125 416.871094 293.046875 419.535156 302.546875 419.863281 C 321.269531 420.511719 335.757813 411.28125 348.019531 402.816406 C 350.667969 400.988281 353.679688 398.910156 357.117188 396.113281 C 360.296875 393.53125 363.472656 389.855469 367.117188 390.332031 C 369.339844 390.621094 371.472656 392.15625 371.363281 395.8125 C 371.269531 399 367.476563 401.351563 365.300781 403.117188 C 358.261719 408.84375 350.679688 414.566406 342.261719 419.257813 C 330.414063 425.859375 318.585938 430.863281 301.335938 430.523438 C 284.804688 430.195313 273.324219 422.613281 262.53125 416.820313 C 251.722656 411.023438 239.804688 403.398438 224.636719 402.511719 C 216.742188 402.046875 208.382813 406.011719 202.808594 409.515625 C 197.167969 413.0625 192.070313 416.882813 186.441406 419.863281 C 173.695313 426.613281 161.113281 429.320313 145.210938 431.738281 C 139.148438 431.738281 133.085938 431.738281 127.019531 431.738281 C 102.273438 428.675781 84.363281 418.523438 69.117188 405.25 C 54.523438 392.546875 42.460938 375.703125 33.042969 357.144531 C 14.363281 320.332031 2.851563 273.335938 0 221.65625 C 0 213.941406 0 206.230469 0 198.515625 C 2.992188 113.300781 52.207031 69.066406 142.785156 71.25 C 170.710938 71.917969 196.570313 78.011719 219.179688 83.730469 C 225.816406 72.503906 230.105469 58.785156 226.457031 42.628906 C 224.253906 32.875 219.707031 24 214.328125 16.445313 C 212.503906 13.875 209.742188 10.78125 210.390625 7.613281 C 211.449219 2.410156 221.625 2.976563 227.0625 2.4375 C 234.125 1.738281 240.691406 1.191406 246.464844 0.00390625 "/>
</g>
<path style=" stroke:none;fill-rule:evenodd;fill:rgb(61.999512%,77.598572%,30.599976%);fill-opacity:1;" d="M 304.140625 49.324219 C 308.070313 49.324219 312.003906 49.324219 315.929688 49.324219 C 320.648438 50.003906 326.011719 50.835938 331.050781 52.042969 C 335.800781 53.183594 340.585938 55.089844 345.5625 55.976563 C 356.609375 57.933594 367.492188 57.492188 378.519531 54.460938 C 367.3125 69.585938 351.011719 82.125 330.445313 88.933594 C 310.105469 95.664063 281.332031 97.359375 258.183594 91.652344 C 264.359375 68.402344 277.984375 52.597656 304.140625 49.324219 "/>
<path style=" stroke:none;fill-rule:evenodd;fill:rgb(61.999512%,77.598572%,30.599976%);fill-opacity:1;" d="M 339.515625 120.679688 C 343.863281 120.007813 344.617188 124.960938 345.261719 130.050781 C 346.410156 139.175781 347.554688 146.4375 348.585938 156.355469 C 349.109375 161.382813 349.417969 167.460938 346.472656 168.148438 C 340.585938 169.519531 337.089844 151.914063 335.585938 147.589844 C 333.359375 141.183594 329.058594 130.085938 321.980469 129.75 C 313.210938 129.328125 309.246094 142.753906 307.46875 152.425781 C 303.566406 173.613281 303.484375 199.109375 304.441406 221.96875 C 305.199219 240.082031 304.183594 264.484375 317.445313 269.738281 C 324.535156 272.546875 331.378906 268.867188 334.378906 264.296875 C 339.058594 257.15625 339.515625 243.519531 339.515625 231.039063 C 339.515625 226.949219 338.984375 221.332031 341.632813 220.453125 C 346.757813 218.757813 348.5625 225.617188 349.191406 228.015625 C 354.640625 248.824219 349.183594 272.824219 336.492188 281.226563 C 329.109375 286.117188 318.191406 287.210938 309.582031 285.15625 C 300.921875 283.09375 294.503906 277.332031 290.535156 271.855469 C 281.566406 259.476563 277.5625 239.945313 278.136719 219.246094 C 278.992188 188.535156 283.238281 160.042969 295.070313 139.425781 C 300.222656 130.449219 307.871094 120.09375 321.675781 120.679688 C 325.113281 120.824219 329.554688 123.453125 332.5625 123.398438 C 334.917969 123.359375 337.390625 121.003906 339.515625 120.679688 "/>
<path style=" stroke:none;fill-rule:evenodd;fill:rgb(61.999512%,77.598572%,30.599976%);fill-opacity:1;" d="M 460.457031 120.375 C 462.109375 122.175781 461.363281 125.90625 461.363281 129.144531 C 461.363281 163.488281 461.667969 198.933594 461.667969 233.152344 C 461.667969 246.285156 460.585938 259.339844 461.667969 271.25 C 461.785156 272.570313 462.15625 274.410156 462.574219 275.785156 C 463.386719 278.453125 465.46875 279.960938 465.898438 282.4375 C 458.238281 282.9375 448.46875 282.945313 440.804688 282.4375 C 440.1875 280.402344 443.449219 277.855469 444.132813 274.878906 C 444.152344 274.78125 444.414063 273.535156 444.433594 273.367188 C 445.605469 263.179688 444.433594 251.40625 444.433594 239.199219 C 444.433594 217.640625 444.132813 193.601563 444.132813 171.171875 C 444.132813 159.734375 445.765625 145.699219 442.617188 138.820313 C 442.238281 137.988281 441.328125 137 440.503906 136.097656 C 439.199219 134.675781 438.566406 134.601563 438.6875 133.378906 C 438.945313 130.8125 445.410156 128.539063 448.664063 126.726563 C 453.773438 123.878906 456.347656 122.003906 460.457031 120.375 "/>
<path style=" stroke:none;fill-rule:evenodd;fill:rgb(61.999512%,77.598572%,30.599976%);fill-opacity:1;" d="M 656.382813 121.886719 C 662.023438 121.207031 666.523438 124.277344 665.152344 131.863281 C 664.261719 136.796875 657.949219 143.40625 653.058594 145.167969 C 648.332031 146.871094 642.953125 145.171875 641.871094 141.539063 C 639.15625 132.445313 649.398438 122.730469 656.382813 121.886719 "/>
<path style=" stroke:none;fill-rule:evenodd;fill:rgb(61.999512%,77.598572%,30.599976%);fill-opacity:1;" d="M 132.402344 287.273438 C 132.203125 287.273438 132 287.273438 131.800781 287.273438 C 116.253906 280.144531 88.03125 285.6875 68 283.042969 C 67.289063 281.570313 69.046875 280.128906 69.816406 279.109375 C 70.851563 277.746094 72.089844 276.59375 72.539063 274.878906 C 73.777344 270.148438 72.839844 263.34375 72.839844 257.34375 C 72.839844 221.902344 72.539063 186.003906 72.539063 150.609375 C 72.539063 139.695313 73.832031 130.1875 67.09375 126.121094 C 67.09375 125.816406 67.09375 125.515625 67.09375 125.214844 C 76.898438 123.574219 91.878906 124.066406 102.167969 124.910156 C 101.894531 127.628906 99.582031 127.808594 98.539063 128.84375 C 94.335938 132.996094 95.515625 142.253906 95.515625 150.914063 C 95.515625 180.652344 95.515625 208.121094 95.515625 237.992188 C 95.515625 247.769531 93.914063 264.96875 97.9375 270.039063 C 101.28125 274.265625 109.757813 273.019531 113.960938 271.25 C 124.101563 266.976563 128.730469 255.667969 134.519531 245.550781 C 135.933594 243.082031 139.75 237.238281 142.683594 238.898438 C 145.066406 240.25 143.074219 247.972656 142.382813 251.296875 C 141.46875 255.671875 140.085938 260.371094 139.355469 263.691406 C 137.414063 272.570313 136.5 282.464844 132.402344 287.273438 "/>
<path style=" stroke:none;fill-rule:evenodd;fill:rgb(61.999512%,77.598572%,30.599976%);fill-opacity:1;" d="M 718.363281 218.941406 C 712.019531 221.925781 706.832031 230.953125 705.0625 240.410156 C 703.488281 248.800781 703.808594 260.984375 707.480469 267.015625 C 711.378906 273.421875 721.722656 272.875 724.714844 265.808594 C 727.199219 259.941406 725.894531 249.699219 725.621094 242.527344 C 725.300781 234.085938 725.957031 225.253906 723.203125 218.941406 C 721.570313 217.738281 719.3125 218.496094 718.363281 218.941406 Z M 751.925781 271.554688 C 753.449219 281.355469 744.953125 286.519531 736.808594 283.042969 C 729.980469 280.128906 730.199219 269.726563 728.949219 261.273438 C 724.726563 268.117188 723.222656 276.769531 717.15625 281.226563 C 710.628906 286.03125 700.835938 283.453125 696.292969 279.109375 C 692.5 275.488281 689.445313 269.207031 688.734375 262.480469 C 685.765625 234.40625 705.933594 220.488281 724.109375 212.59375 C 723.523438 200.855469 723.324219 183.332031 712.316406 182.054688 C 706.597656 181.390625 702.746094 185.371094 698.714844 187.800781 C 701.359375 189.921875 703.46875 189.425781 705.667969 192.035156 C 710.410156 197.65625 706.445313 208.042969 697.199219 205.941406 C 688.304688 203.921875 690.160156 188.367188 694.480469 182.964844 C 702.59375 172.808594 726.074219 172.792969 734.089844 182.359375 C 740.296875 189.769531 740.414063 205.125 741.34375 219.546875 C 742.234375 233.371094 742.199219 247.945313 743.460938 260.972656 C 743.996094 266.503906 745.984375 271.011719 751.925781 271.554688 "/>
<path style=" stroke:none;fill-rule:evenodd;fill:rgb(61.999512%,77.598572%,30.599976%);fill-opacity:1;" d="M 624.636719 281.226563 C 617.199219 282.363281 606.554688 281.886719 598.632813 281.53125 C 597.847656 280.09375 600.859375 278.140625 601.65625 276.390625 C 604.441406 270.292969 602.585938 257.777344 601.960938 248.574219 C 600.921875 233.367188 599.578125 218.78125 596.214844 205.035156 C 594.234375 196.945313 591.125 185.582031 581.703125 190.523438 C 584.6875 183.804688 591.027344 171.117188 601.050781 177.21875 C 611.378906 183.503906 613.972656 205.746094 615.867188 221.363281 C 616.933594 230.121094 617.710938 239.480469 618.285156 248.269531 C 618.871094 257.15625 618.558594 267.984375 620.707031 274.574219 C 621.609375 277.351563 624.195313 278.835938 624.636719 281.226563 "/>
<path style=" stroke:none;fill-rule:evenodd;fill:rgb(61.999512%,77.598572%,30.599976%);fill-opacity:1;" d="M 527.277344 240.410156 C 524.007813 227.761719 519.855469 216.601563 514.882813 206.246094 C 512.566406 201.425781 509 194.613281 504.601563 193.242188 C 491.453125 189.15625 493.765625 207.894531 495.230469 216.222656 C 497.789063 230.808594 502.128906 242.730469 507.625 253.714844 C 510.8125 260.085938 514.988281 267.8125 523.953125 266.714844 C 533.300781 263.867188 529.449219 248.800781 527.277344 240.410156 Z M 509.742188 176.3125 C 522.425781 175.011719 529.648438 189.5625 533.023438 198.082031 C 539.707031 214.953125 541.742188 243.398438 534.835938 263.085938 C 530.648438 275.023438 522.921875 289.371094 507.019531 283.648438 C 490.890625 277.839844 483.894531 252.078125 484.949219 228.921875 C 485.566406 215.355469 488.054688 204.921875 491.296875 196.871094 C 494.519531 188.878906 500.175781 177.289063 509.742188 176.3125 "/>
<path style=" stroke:none;fill-rule:evenodd;fill:rgb(61.999512%,77.598572%,30.599976%);fill-opacity:1;" d="M 376.707031 210.175781 C 377.566406 220.785156 381.945313 234.285156 385.171875 242.828125 C 388.136719 250.683594 393.894531 265.757813 402.40625 267.015625 C 417.355469 269.230469 411.878906 247.125 409.660156 238.898438 C 406.894531 228.636719 401.519531 214.328125 397.265625 205.941406 C 394.574219 200.636719 390.445313 191.929688 382.753906 193.546875 C 376.550781 194.847656 376.058594 202.191406 376.707031 210.175781 Z M 392.429688 176.613281 C 399.644531 175.933594 405.832031 181.285156 409.058594 185.683594 C 416.808594 196.25 421.453125 214.15625 421.453125 234.0625 C 421.453125 253.023438 417.324219 271.429688 407.546875 280.621094 C 403.375 284.546875 395.710938 286.898438 388.195313 283.648438 C 373.480469 277.277344 366.628906 251.527344 367.636719 230.433594 C 368.222656 218.074219 370.015625 206.894531 373.078125 198.6875 C 375.683594 191.707031 380.410156 180.53125 388.800781 177.21875 C 389.847656 176.804688 390.8125 176.765625 392.429688 176.613281 "/>
<path style=" stroke:none;fill-rule:evenodd;fill:rgb(61.999512%,77.598572%,30.599976%);fill-opacity:1;" d="M 576.5625 176.613281 C 578.414063 181.777344 577.179688 189.941406 577.769531 196.871094 C 578.773438 197.558594 578.386719 194.273438 580.191406 194.753906 C 579.84375 214.140625 578.652344 245.183594 579.585938 266.410156 C 579.742188 270.019531 579.714844 273.726563 580.796875 276.390625 C 581.671875 278.558594 583.679688 279.828125 583.816406 282.136719 C 575.730469 282.539063 565.875 282.703125 557.816406 282.136719 C 564.484375 275.472656 563.015625 259.886719 562.351563 245.246094 C 561.472656 225.890625 564.144531 205.988281 560.535156 192.941406 C 559.773438 191.789063 557.308594 192.339844 556.910156 190.824219 C 557.785156 187.585938 562.261719 185.625 565.375 183.566406 C 569.0625 181.128906 572.960938 178.949219 576.257813 176.613281 C 576.359375 176.613281 576.460938 176.613281 576.5625 176.613281 "/>
<path style=" stroke:none;fill-rule:evenodd;fill:rgb(61.999512%,77.598572%,30.599976%);fill-opacity:1;" d="M 662.128906 176.613281 C 663.742188 179.960938 663.035156 183.996094 663.035156 187.800781 C 663.035156 199.394531 662.484375 211.617188 663.035156 223.78125 C 663.789063 240.402344 662.164063 257.0625 663.335938 271.25 C 663.734375 276.042969 666.34375 278.875 667.871094 282.136719 C 659.105469 282.136719 650.335938 282.136719 641.566406 282.136719 C 642.121094 279.574219 644.6875 278.171875 645.496094 275.785156 C 647.054688 271.21875 646.355469 264.101563 646.101563 257.34375 C 645.644531 245.15625 646.101563 230.542969 646.101563 218.339844 C 646.101563 209.890625 647.144531 199.613281 644.289063 194.453125 C 643.632813 193.265625 640.367188 191.371094 640.359375 190.21875 C 640.335938 187.601563 647.765625 184.691406 650.335938 183.265625 C 655.4375 180.433594 657.703125 178.578125 661.824219 176.613281 C 661.925781 176.613281 662.027344 176.613281 662.128906 176.613281 "/>
<path style=" stroke:none;fill-rule:evenodd;fill:rgb(61.999512%,77.598572%,30.599976%);fill-opacity:1;" d="M 186.523438 222.269531 C 180.90625 227.054688 175.371094 239.261719 175.339844 251.296875 C 175.3125 260.472656 176.84375 271.472656 183.804688 273.367188 C 193.199219 275.925781 196.644531 267.25 197.109375 260.363281 C 197.507813 254.398438 196.902344 247.214844 196.503906 239.808594 C 196.066406 231.703125 197.777344 219.191406 190.457031 220.453125 C 189.039063 220.699219 187.425781 221.5 186.523438 222.269531 Z M 223.109375 273.367188 C 224.542969 282.914063 215.992188 288.59375 207.691406 284.855469 C 201.003906 281.847656 201.152344 271.441406 200.132813 263.390625 C 194.03125 272.121094 192.980469 287.335938 177.152344 285.765625 C 164.550781 284.511719 158.710938 270.519531 159.917969 254.621094 C 161.597656 232.480469 179.480469 221.578125 195.292969 214.40625 C 194.582031 202.023438 194.050781 184.652344 182.898438 183.871094 C 177.242188 183.476563 174 187.417969 169.894531 189.613281 C 172.582031 191.835938 175.644531 192.019531 177.453125 195.054688 C 182.113281 202.886719 174.789063 210.632813 167.175781 207.453125 C 158.097656 203.664063 161.605469 187.996094 167.777344 182.660156 C 178.335938 173.539063 201.203125 176.046875 207.386719 187.496094 C 209.765625 191.902344 211.078125 198.339844 211.621094 204.734375 C 212.929688 220.214844 213.359375 237.035156 214.339844 254.316406 C 214.890625 263.976563 213.703125 272.5625 223.109375 273.367188 "/>
<path style=" stroke:none;fill-rule:evenodd;fill:rgb(92.89856%,35.299683%,15.699768%);fill-opacity:1;" d="M 685.359375 315.003906 C 684.148438 315.003906 682.9375 315.003906 681.730469 315.003906 C 677.085938 311.511719 682.179688 304.253906 686.566406 307.445313 C 688.96875 309.191406 687.945313 313.753906 685.359375 315.003906 "/>
<path style=" stroke:none;fill-rule:evenodd;fill:rgb(92.89856%,35.299683%,15.699768%);fill-opacity:1;" d="M 448.917969 307.445313 C 451.03125 307.445313 453.148438 307.445313 455.265625 307.445313 C 457.492188 321.847656 458.648438 337.324219 460.707031 351.894531 C 467.808594 336.820313 475.484375 322.324219 482.78125 307.445313 C 485.097656 307.445313 487.417969 307.445313 489.734375 307.445313 C 480.910156 325.128906 471.636719 342.359375 462.523438 359.753906 C 460.203125 359.753906 457.886719 359.753906 455.570313 359.753906 C 453.425781 342.242188 451.078125 324.9375 448.917969 307.445313 "/>
<path style=" stroke:none;fill-rule:evenodd;fill:rgb(92.89856%,35.299683%,15.699768%);fill-opacity:1;" d="M 494.875 307.746094 C 498.894531 306.390625 500.253906 309.316406 500.316406 311.074219 C 500.507813 316.28125 492.09375 317.734375 492.152344 311.679688 C 492.171875 309.753906 493.199219 308.617188 494.875 307.746094 "/>
<path style=" stroke:none;fill-rule:evenodd;fill:rgb(92.89856%,35.299683%,15.699768%);fill-opacity:1;" d="M 101.8125 321.050781 C 101.238281 314.410156 94.449219 312.414063 86.09375 313.796875 C 84.105469 320.074219 83.363281 327.59375 81.859375 334.355469 C 92.714844 336.898438 102.6875 331.101563 101.8125 321.050781 Z M 80.953125 339.796875 C 79.472656 346.582031 78.277344 353.652344 77.023438 360.660156 C 75.414063 361.132813 72.28125 361.132813 70.671875 360.660156 C 73.972656 343.601563 77.152344 326.421875 80.347656 309.261719 C 92.335938 306.574219 106.511719 307.980469 108.164063 318.9375 C 110.34375 333.394531 96.699219 342.300781 80.953125 339.796875 "/>
<path style=" stroke:none;fill-rule:evenodd;fill:rgb(92.89856%,35.299683%,15.699768%);fill-opacity:1;" d="M 751.574219 320.449219 C 751.136719 322.429688 750.828125 324.539063 750.363281 326.496094 C 735.003906 327.359375 737.117188 345.699219 733.433594 358.242188 C 731.96875 358.894531 729.339844 358.382813 727.386719 358.546875 C 729.027344 345.675781 732.316406 334.449219 733.433594 321.050781 C 735.246094 321.050781 737.0625 321.050781 738.875 321.050781 C 738.949219 323.546875 738.546875 325.5625 738.269531 327.703125 C 741.992188 324.765625 744.40625 318.9375 751.574219 320.449219 "/>
<path style=" stroke:none;fill-rule:evenodd;fill:rgb(92.89856%,35.299683%,15.699768%);fill-opacity:1;" d="M 701.683594 328.308594 C 695.644531 333.75 691.949219 352.3125 702.59375 354.3125 C 711.96875 356.070313 718.523438 344.152344 718.011719 335.265625 C 717.632813 328.671875 713.746094 324.78125 707.730469 325.589844 C 705.21875 325.925781 702.816406 327.289063 701.683594 328.308594 Z M 705.917969 320.75 C 727.496094 316.800781 727.945313 342.816406 717.710938 353.402344 C 710.804688 360.542969 696.921875 361.8125 691.40625 353.101563 C 685.765625 344.195313 691.640625 329.757813 697.148438 324.980469 C 699.269531 323.144531 702.117188 321.445313 705.917969 320.75 "/>
<path style=" stroke:none;fill-rule:evenodd;fill:rgb(92.89856%,35.299683%,15.699768%);fill-opacity:1;" d="M 629.421875 359.148438 C 627.75 359.683594 624.773438 359.527344 623.074219 359.148438 C 623.316406 351.402344 628.671875 339.867188 627.609375 331.332031 C 627.183594 327.9375 624.324219 325.144531 619.746094 326.496094 C 609.371094 329.554688 609.457031 348.589844 606.441406 359.449219 C 604.527344 359.449219 602.613281 359.449219 600.699219 359.449219 C 600.445313 350.800781 606.640625 339.273438 604.933594 330.121094 C 604.429688 327.433594 601.238281 325.605469 597.675781 326.496094 C 586.472656 329.28125 586.898438 347.875 584.070313 359.449219 C 582.054688 359.449219 580.039063 359.449219 578.023438 359.449219 C 579.761719 346.578125 582.902344 335.101563 584.371094 321.960938 C 586.1875 321.960938 588 321.960938 589.8125 321.960938 C 590.105469 323.339844 589.28125 326.003906 589.210938 328.007813 C 592.417969 325.738281 597.945313 318.65625 606.140625 321.355469 C 608.765625 322.21875 610.59375 325.109375 611.28125 328.609375 C 614.828125 325.003906 618.207031 320.855469 624.585938 320.75 C 631.953125 320.628906 634.664063 326.695313 633.957031 334.355469 C 633.195313 342.59375 630.132813 351.644531 629.421875 359.148438 "/>
<path style=" stroke:none;fill-rule:evenodd;fill:rgb(92.89856%,35.299683%,15.699768%);fill-opacity:1;" d="M 663.890625 332.542969 C 664.9375 328.574219 662.144531 326.277344 659.960938 325.890625 C 652.808594 324.613281 647.136719 332.269531 646.355469 337.683594 C 653.355469 337.335938 662.519531 337.742188 663.890625 332.542969 Z M 645.144531 342.820313 C 642.960938 355.421875 656.496094 356.910156 664.496094 352.496094 C 664.9375 353.867188 665.082031 355.539063 665.402344 357.03125 C 659.699219 360.277344 649.589844 361.402344 644.238281 357.636719 C 639.9375 354.609375 638.144531 348.859375 638.796875 342.519531 C 639.859375 332.140625 648.03125 321.605469 657.539063 320.75 C 665.59375 320.027344 674.082031 326.785156 669.03125 335.566406 C 665.59375 341.539063 654.953125 342.785156 645.144531 342.820313 "/>
<path style=" stroke:none;fill-rule:evenodd;fill:rgb(92.89856%,35.299683%,15.699768%);fill-opacity:1;" d="M 558.066406 331.636719 C 558.390625 328.339844 555.800781 326.523438 553.832031 326.191406 C 546.523438 324.964844 541.296875 332.792969 540.230469 337.984375 C 547.703125 337.675781 557.441406 337.992188 558.066406 331.636719 Z M 539.625 342.820313 C 536.230469 355.441406 550.644531 357.445313 558.671875 352.800781 C 558.777344 354.507813 559.324219 355.773438 559.578125 357.335938 C 545.554688 364.164063 532.59375 358.957031 532.667969 345.238281 C 532.734375 333.398438 540.960938 321.652344 552.320313 321.050781 C 557.371094 320.785156 563.121094 323.179688 564.113281 328.308594 C 564.863281 332.195313 563.507813 335.734375 561.695313 337.683594 C 557.839844 341.824219 549.367188 343.066406 539.625 342.820313 "/>
<path style=" stroke:none;fill-rule:evenodd;fill:rgb(92.89856%,35.299683%,15.699768%);fill-opacity:1;" d="M 430.171875 323.167969 C 430.675781 324.574219 428.933594 326.09375 428.960938 328.007813 C 424.21875 325.648438 414.441406 325.507813 415.65625 333.144531 C 416.613281 339.148438 427.027344 339.507813 427.753906 347.355469 C 428.800781 358.71875 414.835938 364.378906 404.167969 357.941406 C 404.898438 356.554688 405.304688 354.84375 405.980469 353.402344 C 410.28125 357.402344 424.046875 356.722656 420.796875 347.054688 C 419.289063 342.5625 410.539063 341.453125 409.308594 335.265625 C 407.28125 325.066406 419.246094 317.976563 430.171875 323.167969 "/>
<path style=" stroke:none;fill-rule:evenodd;fill:rgb(92.89856%,35.299683%,15.699768%);fill-opacity:1;" d="M 357.910156 360.054688 C 355.792969 360.054688 353.675781 360.054688 351.558594 360.054688 C 352.421875 352.8125 355.496094 343.722656 356.09375 335.867188 C 356.554688 329.800781 354.25 325.6875 347.929688 327.402344 C 336.582031 330.476563 337.0625 348.566406 334.019531 360.054688 C 332.007813 360.054688 329.988281 360.054688 327.976563 360.054688 C 329.835938 347.203125 332.628906 335.277344 334.628906 322.5625 C 336.441406 322.5625 338.253906 322.5625 340.070313 322.5625 C 339.992188 324.902344 339.328125 326.660156 339.464844 329.214844 C 342.9375 324.121094 352.992188 318.511719 359.421875 323.472656 C 362.167969 325.589844 363.117188 329.40625 362.746094 334.355469 C 362.105469 342.90625 358.925781 352.386719 357.910156 360.054688 "/>
<path style=" stroke:none;fill-rule:evenodd;fill:rgb(92.89856%,35.299683%,15.699768%);fill-opacity:1;" d="M 383.003906 327.703125 C 376.621094 330.878906 368.246094 351.746094 380.28125 355.21875 C 396.621094 359.929688 403.503906 325.292969 386.933594 326.796875 C 385.355469 326.941406 383.988281 327.214844 383.003906 327.703125 Z M 385.726563 321.960938 C 390.714844 321.308594 395.726563 322.515625 398.425781 324.980469 C 408.972656 334.625 399.9375 355.859375 389.050781 359.753906 C 381.203125 362.558594 372.445313 359.503906 369.398438 353.402344 C 363.378906 341.371094 372.746094 323.652344 385.726563 321.960938 "/>
<path style=" stroke:none;fill-rule:evenodd;fill:rgb(92.89856%,35.299683%,15.699768%);fill-opacity:1;" d="M 685.359375 321.65625 C 684.035156 328.839844 682.355469 338.253906 680.519531 347.660156 C 677.859375 361.277344 678.417969 377.21875 661.167969 375.175781 C 660.875 373.902344 661.355469 371.523438 661.773438 370.03125 C 673.011719 371.578125 672.722656 355.753906 674.171875 347.660156 C 675.835938 338.355469 677.660156 329.890625 678.707031 322.5625 C 678.964844 322.320313 678.886719 321.734375 679.3125 321.65625 C 681.328125 321.65625 683.34375 321.65625 685.359375 321.65625 "/>
<path style=" stroke:none;fill-rule:evenodd;fill:rgb(92.89856%,35.299683%,15.699768%);fill-opacity:1;" d="M 190.101563 349.472656 C 190.613281 354.09375 193.753906 357.03125 198.566406 355.824219 C 208.585938 353.308594 210.199219 338.441406 212.175781 327.703125 C 198.914063 324.988281 188.714844 336.921875 190.101563 349.472656 Z M 219.128906 323.472656 C 217.78125 334.925781 213.90625 346.46875 213.988281 360.359375 C 212.070313 360.359375 210.160156 360.359375 208.242188 360.359375 C 208.023438 357.015625 208.808594 354.675781 208.847656 351.589844 C 205.425781 356.605469 197.15625 365.527344 188.289063 359.753906 C 185.167969 357.722656 183.804688 353.847656 183.449219 350.984375 C 181.148438 332.359375 200.011719 316.855469 219.128906 323.472656 "/>
<path style=" stroke:none;fill-rule:evenodd;fill:rgb(92.89856%,35.299683%,15.699768%);fill-opacity:1;" d="M 267.503906 329.820313 C 272.429688 320.628906 291.3125 316.96875 290.179688 334.054688 C 289.585938 343.035156 286.390625 352.601563 285.34375 360.359375 C 283.390625 360.195313 280.761719 360.710938 279.296875 360.054688 C 279.714844 351.648438 284.25 342.09375 283.832031 333.449219 C 283.636719 329.371094 281.246094 326.046875 276.273438 327.402344 C 265.546875 330.328125 265.574219 349.238281 262.667969 360.359375 C 260.648438 360.359375 258.636719 360.359375 256.621094 360.359375 C 257.414063 353.125 260.492188 344.03125 261.15625 336.171875 C 261.613281 330.707031 260.101563 326.199219 253.898438 327.402344 C 252.621094 327.648438 250.839844 328.796875 249.96875 329.519531 C 242.941406 335.324219 242.386719 350.527344 239.992188 360.359375 C 237.976563 360.359375 235.960938 360.359375 233.945313 360.359375 C 236.152344 347.851563 238.886719 335.871094 240.59375 322.867188 C 242.410156 322.867188 244.222656 322.867188 246.039063 322.867188 C 246.09375 325.140625 245.488281 326.753906 245.433594 328.914063 C 248.191406 327.148438 251.460938 322.667969 256.316406 321.960938 C 262.21875 321.101563 266.960938 324.234375 267.503906 329.820313 "/>
<path style=" stroke:none;fill-rule:evenodd;fill:rgb(92.89856%,35.299683%,15.699768%);fill-opacity:1;" d="M 320.113281 330.121094 C 319.917969 329.285156 318.671875 327.761719 317.996094 327.402344 C 310.96875 323.632813 303.144531 332.683594 302.273438 338.589844 C 308.972656 338.699219 322.113281 338.683594 320.113281 330.121094 Z M 301.367188 343.730469 C 298.9375 356.492188 312.859375 357.867188 320.71875 353.402344 C 320.957031 354.980469 321.214844 356.535156 321.625 357.941406 C 310.378906 364.109375 296.539063 360.761719 295.019531 349.171875 C 293.53125 337.828125 301.15625 323.585938 311.949219 321.960938 C 322.046875 320.4375 330.894531 328.605469 324.648438 337.378906 C 321.082031 342.390625 310.578125 343.707031 301.367188 343.730469 "/>
<path style=" stroke:none;fill-rule:evenodd;fill:rgb(92.89856%,35.299683%,15.699768%);fill-opacity:1;" d="M 497.292969 322.261719 C 495.28125 335.066406 492.621094 347.21875 490.339844 359.753906 C 488.324219 359.753906 486.308594 359.753906 484.292969 359.753906 C 485.898438 347.648438 488.902344 334.332031 491.246094 321.960938 C 492.710938 322.613281 495.339844 322.097656 497.292969 322.261719 "/>
<path style=" stroke:none;fill-rule:evenodd;fill:rgb(92.89856%,35.299683%,15.699768%);fill-opacity:1;" d="M 534.785156 321.960938 C 528.972656 334.191406 521.082031 346.953125 514.527344 359.449219 C 512.21875 359.359375 510.140625 359.496094 508.179688 359.753906 C 505.851563 347.367188 503.726563 334.777344 501.527344 322.261719 C 503.742188 322.261719 505.960938 322.261719 508.179688 322.261719 C 509.597656 332.230469 511.058594 342.15625 512.714844 351.894531 C 517.933594 341.890625 522.769531 331.511719 528.4375 321.960938 C 530.554688 321.960938 532.667969 321.960938 534.785156 321.960938 "/>
<path style=" stroke:none;fill-rule:evenodd;fill:rgb(92.89856%,35.299683%,15.699768%);fill-opacity:1;" d="M 113 350.078125 C 113.570313 354.105469 116.902344 357.386719 122.074219 355.824219 C 131.578125 352.945313 133.105469 337.691406 135.074219 328.007813 C 122.296875 324.367188 111.277344 337.855469 113 350.078125 Z M 142.027344 323.472656 C 140.558594 336.011719 136.785156 346.246094 136.890625 360.359375 C 135.589844 360.847656 132.441406 360.847656 131.144531 360.359375 C 130.980469 356.8125 131.511719 355.640625 131.445313 352.496094 C 127.972656 355.308594 125.972656 360.253906 120.5625 361.265625 C 118.644531 361.621094 116.5625 361.007813 113.910156 361.265625 C 110.519531 359.515625 107.660156 357.390625 106.652344 353.402344 C 102.074219 335.308594 121.5625 316.457031 142.027344 323.472656 "/>
<path style=" stroke:none;fill-rule:evenodd;fill:rgb(92.89856%,35.299683%,15.699768%);fill-opacity:1;" d="M 153.820313 353.707031 C 158.199219 358.273438 165.203125 353.265625 167.425781 350.382813 C 171.578125 344.988281 171.921875 335.714844 173.773438 328.609375 C 159.214844 320.253906 145.425781 344.949219 153.820313 353.707031 Z M 180.730469 324.679688 C 175.210938 343.402344 178.703125 374.34375 157.75 376.6875 C 151.746094 377.355469 147.375 376.066406 143.238281 374.265625 C 143.703125 372.414063 144.53125 370.925781 145.050781 369.125 C 157.800781 376.320313 169.25 367.015625 169.238281 354.007813 C 164.722656 357.640625 160.289063 362.105469 153.214844 360.359375 C 149.011719 359.320313 145.691406 354.730469 145.050781 350.078125 C 142.378906 330.652344 161.988281 316.023438 180.730469 324.679688 "/>
</g>
</svg>
